<svg width="811" height="559" viewBox="0 0 811 559" fill="none" xmlns="http://www.w3.org/2000/svg">
<path opacity="0.5" fill-rule="evenodd" clip-rule="evenodd" d="M405.108 147.734L6.03385 366.036C0.665767 369.134 0.383239 374.064 5.18626 377.303C2.78475 375.613 134.444 458.849 179.79 485.186C333.204 568.422 431.666 570.253 595.534 485.186L791.469 376.317C797.12 373.078 797.12 367.726 791.469 364.486L425.874 147.875C419.235 144.495 411.607 144.495 405.108 147.734Z" fill="url(#paint0_linear)"/>
<path opacity="0.5" fill-rule="evenodd" clip-rule="evenodd" d="M405.108 158.433L6.03385 376.734C0.665767 379.833 0.383239 384.762 5.18626 388.001C2.78475 386.311 134.444 469.548 179.79 495.885C333.204 579.121 431.666 580.952 595.534 495.885L791.469 387.016C797.12 383.776 797.12 378.424 791.469 375.185L425.874 158.574C419.235 155.194 411.607 155.194 405.108 158.433Z" fill="url(#paint1_linear)"/>
<path fill-rule="evenodd" clip-rule="evenodd" d="M415.124 0.636848L520.537 65.5995C522.951 67.3156 524.509 70.0556 524.526 73.0955L522.379 138.136C522.291 140.822 518.758 144.446 516.45 143.084L412.654 75.4861C410.24 73.7699 408.683 71.03 408.665 67.9901L408.415 4.27323C408.386 1.58366 412.82 -0.841889 415.124 0.636848ZM414.481 77.1828L433.969 89.281L413.726 100.07L414.481 77.1828Z" fill="#C7CBD1"/>
<path fill-rule="evenodd" clip-rule="evenodd" d="M411.93 2.95134L516.784 67.8884C519.186 69.6039 520.734 72.3433 520.751 75.3828L518.605 140.416C518.516 143.101 516.61 144.09 514.314 142.729L409.46 77.7919C407.059 76.0763 405.51 73.337 405.493 70.2974L407.64 5.26443C407.728 2.57905 409.638 1.47317 411.93 2.95134Z" fill="#DDE2E8"/>
<path fill-rule="evenodd" clip-rule="evenodd" d="M412.595 79.2835L431.436 91.3079L411.84 102.183L412.595 79.2835Z" fill="#DDE2E8"/>
<path fill-rule="evenodd" clip-rule="evenodd" d="M422.456 27.1041L497.149 73.0909L497.014 77.1705L422.322 31.1837L422.456 27.1041ZM422.083 38.4105L496.776 84.3973L496.641 88.4769L421.949 42.4901L422.083 38.4105ZM421.706 49.8335L480.953 86.3261L480.818 90.4058L421.572 53.9131L421.706 49.8335ZM421.329 61.2564L454.067 81.3557L453.932 85.4353L421.198 65.2195L421.329 61.2564Z" fill="#C7CBD1"/>
<path fill-rule="evenodd" clip-rule="evenodd" d="M558.454 85.5275L663.86 150.547C666.274 152.265 667.831 155.007 667.848 158.05L665.7 223.15C665.611 225.839 662.079 229.466 659.771 228.103L555.981 160.446C553.567 158.728 552.01 155.986 551.992 152.943L551.744 89.1675C551.715 86.4754 556.149 84.0475 558.454 85.5275ZM557.808 162.144L577.295 174.253L557.052 185.052L557.808 162.144Z" fill="#C7CBD1"/>
<path fill-rule="evenodd" clip-rule="evenodd" d="M555.286 87.8569L660.801 152.867C663.218 154.585 664.776 157.327 664.794 160.369L662.646 225.456C662.557 228.144 660.64 229.134 658.329 227.771L552.814 162.76C550.397 161.043 548.838 158.301 548.821 155.259L550.969 90.1711C550.94 87.4796 552.861 86.3731 555.286 87.8569ZM555.584 164.489L575.091 176.596L554.828 187.393L555.584 164.489Z" fill="#DDE2E8"/>
<path fill-rule="evenodd" clip-rule="evenodd" d="M565.898 111.421L640.313 157.67L640.178 161.775L565.762 115.526L565.898 111.421ZM565.522 122.798L608.836 149.118L608.7 153.223L565.387 126.903L565.522 122.798ZM565.143 134.292L624.17 170.993L624.034 175.098L565.007 138.397L565.143 134.292ZM564.767 145.669L597.38 166.001L597.244 170.106L564.632 149.774L564.767 145.669Z" fill="#C7CBD1"/>
<path fill-rule="evenodd" clip-rule="evenodd" d="M700.014 172.741L804.755 237.681C807.154 239.397 808.7 242.137 808.717 245.176L806.57 310.217C806.482 312.903 802.971 316.528 800.677 315.166L697.543 247.59C695.144 245.874 693.597 243.135 693.581 240.095L693.345 176.379C693.317 173.689 697.723 171.263 700.014 172.741ZM700.149 250.131L719.513 262.225L699.394 273.018L700.149 250.131Z" fill="#C7CBD1"/>
<path fill-rule="evenodd" clip-rule="evenodd" d="M696.126 175.054L800.975 239.981C803.377 241.696 804.925 244.435 804.942 247.474L802.796 312.497C802.707 315.182 800.802 316.171 798.505 314.81L693.656 249.883C691.254 248.167 689.706 245.428 689.689 242.389L691.835 177.367C691.811 174.561 693.833 173.576 696.126 175.054Z" fill="#DDE2E8"/>
<path fill-rule="evenodd" clip-rule="evenodd" d="M697.526 251.389L717.106 263.438L696.771 274.288L697.526 251.389Z" fill="#DDE2E8"/>
<path fill-rule="evenodd" clip-rule="evenodd" d="M706.648 199.186L795.121 253.597L794.986 257.688L706.513 203.277L706.648 199.186ZM706.274 210.525L754.679 239.975L754.544 244.067L706.139 214.617L706.274 210.525ZM705.896 221.982L765.26 258.581L765.125 262.672L705.761 226.074L705.896 221.982ZM705.522 233.322L754.947 263.975L754.812 268.067L705.387 237.414L705.522 233.322Z" fill="#C7CBD1"/>
<path opacity="0.4" fill-rule="evenodd" clip-rule="evenodd" d="M5.35229 310.019C5.35229 310.019 26.2636 266.656 49.8595 241.736C73.4554 216.816 75.4334 199.78 122.343 170.496C169.252 141.212 215.596 84.3323 229.866 67.1559C263.777 25.2005 271.83 17.8795 289.916 5.34912V180.07L5.35229 343.245V310.019Z" fill="url(#paint2_linear)"/>
<path fill-rule="evenodd" clip-rule="evenodd" d="M290.362 1.4783C293.038 0.107685 295.268 1.20418 295.268 4.08248C295.144 6.70777 293.783 9.14294 291.7 10.913V180.048L290.808 180.657V180.927L101.694 289.306V289.701L98.1253 291.536V291.351L6.24435 344.006V344.09L4.84961 344.806L4.46027 345.029V345.005L2.67615 345.92V318.276C1.11154 318.377 3.05176e-05 317.223 3.05176e-05 315.091C0.135193 311.939 1.75708 309.061 4.46027 307.279C6.89313 305.908 8.9205 307.005 8.9205 309.883C8.81842 312.264 7.86813 314.489 6.24435 316.203V340.497L98.1253 287.841V194.351C96.5607 194.452 95.4492 193.298 95.4492 191.166C95.7195 188.014 97.3414 185.136 99.9094 183.354C102.342 181.983 104.37 183.08 104.37 185.958C104.268 188.339 103.317 190.564 101.694 192.278V285.796L193.574 233.141V114.017C191.532 114.497 190.006 113.246 190.006 110.682C190.155 107.287 192.088 104.187 194.913 102.268C197.589 100.792 199.819 101.973 199.819 105.073C199.695 107.9 198.334 110.522 196.251 112.429V231.607L289.024 178.44V12.3881C286.981 12.8335 285.455 11.6718 285.455 9.29083C285.604 6.13841 287.388 3.26011 290.362 1.4783Z" fill="url(#paint3_linear)"/>
<path fill-rule="evenodd" clip-rule="evenodd" d="M396.299 336.84L391.31 333.669L401.086 328.099L400.659 327.352L390.489 333.147L267.848 255.198L267.386 255.924L389.643 333.628L331.864 366.547L331.861 366.549C326.944 369.259 320.563 370.523 314.199 370.377C307.837 370.232 301.537 368.679 296.777 365.802L265.022 344.914C266.958 343.727 267.007 341.923 265.106 340.701C262.92 339.462 260.263 339.301 257.945 340.259L252.9 336.94C253.059 336.888 253.217 336.83 253.372 336.767C255.268 335.758 255.352 334.163 253.565 333.085C251.515 331.994 249.02 331.864 246.868 332.736C246.801 332.771 246.736 332.808 246.674 332.845L184.909 292.215L184.436 292.934L245.952 333.399C245.013 334.359 245.244 335.554 246.676 336.417C248.231 337.245 250.042 337.52 251.765 337.223L257.15 340.765C255.734 341.935 255.86 343.512 257.576 344.615C259.55 345.734 261.907 345.974 264.052 345.306L296.317 366.53L296.324 366.534C301.243 369.509 307.702 371.089 314.18 371.237C320.657 371.385 327.198 370.102 332.28 367.3L332.285 367.297L390.464 334.15L395.838 337.566L396.299 336.84ZM405.506 342.368L264.632 419.778C259.563 422.565 253.04 423.842 246.58 423.694C240.12 423.546 233.678 421.973 228.772 419.011L228.765 419.007L179.515 386.709C177.511 387.194 175.367 386.909 173.548 385.878C171.968 384.863 171.735 383.446 172.813 382.315L168.935 379.771C166.852 380.645 164.503 380.468 162.564 379.275C160.975 378.166 160.883 376.562 162.242 375.382L117.041 345.741L117.513 345.022L163.03 374.87C165.133 373.956 167.519 374.122 169.485 375.33C171.097 376.456 171.168 378.091 169.746 379.275L173.51 381.743C173.594 381.689 173.681 381.635 173.772 381.583C176.124 380.558 178.846 380.7 181.078 381.965C183.023 383.215 182.926 385.076 180.853 386.26C180.761 386.3 180.667 386.339 180.574 386.375L229.217 418.275L229.224 418.279C233.972 421.142 240.255 422.689 246.6 422.834C252.948 422.98 259.313 421.721 264.217 419.024L405.091 341.614L405.506 342.368Z" fill="#F5F6F9" fill-opacity="0.5"/>
<path fill-rule="evenodd" clip-rule="evenodd" d="M302.404 132.84H227.472V265.179V265.628H227.613C227.753 266.078 228.175 266.415 228.738 266.527L261.916 282.03C263.743 282.817 265.993 282.817 267.961 282.03L301.139 266.527C301.701 266.415 302.123 266.078 302.264 265.628H302.404V132.84Z" fill="url(#paint4_linear)"/>
<path fill-rule="evenodd" clip-rule="evenodd" d="M301.138 134.148L267.961 153.501C266.133 154.483 263.884 154.483 261.916 153.501L228.739 134.148C227.755 133.867 227.192 132.745 227.614 131.764C227.755 131.203 228.176 130.782 228.739 130.642L261.916 111.288C263.743 110.306 265.993 110.306 267.961 111.288L301.138 130.642C302.122 130.922 302.684 132.044 302.263 133.026C302.122 133.447 301.7 133.867 301.138 134.148Z" fill="url(#paint5_linear)"/>
<path fill-rule="evenodd" clip-rule="evenodd" d="M252.5 125.216C245.596 129.202 245.596 135.663 252.5 139.649C259.404 143.634 270.596 143.634 277.5 139.649C284.404 135.663 284.404 129.202 277.5 125.216C270.596 121.231 259.404 121.231 252.5 125.216ZM266.159 134.997C265.732 135.244 265.747 135.653 266.193 135.91C266.639 136.168 267.348 136.176 267.775 135.929C268.203 135.683 268.188 135.274 267.742 135.016C267.295 134.759 266.587 134.75 266.159 134.997ZM270.452 133.453C270.006 133.195 269.991 132.786 270.418 132.54C270.846 132.293 271.555 132.301 272.001 132.559C272.447 132.816 272.462 133.225 272.034 133.472C271.607 133.719 270.898 133.71 270.452 133.453ZM255.387 132.355C255.173 132.478 255.181 132.682 255.404 132.811C255.627 132.94 255.981 132.944 256.195 132.821L257.426 132.11L259.427 132.893C259.44 132.899 259.454 132.904 259.468 132.909L263.486 134.482C263.818 134.612 264.214 134.672 264.605 134.653C264.994 134.633 265.352 134.536 265.619 134.377L269.376 132.209C269.651 132.055 269.821 131.848 269.855 131.624C269.889 131.398 269.783 131.17 269.558 130.978L266.785 128.663C266.688 128.582 266.536 128.529 266.37 128.518C266.203 128.507 266.04 128.539 265.925 128.606L259.661 132.22L257.64 131.429C257.415 131.341 257.12 131.355 256.936 131.461L255.387 132.355Z" fill="black" fill-opacity="0.25"/>
<path fill-rule="evenodd" clip-rule="evenodd" d="M382.689 45.4688H306.865V227.353C306.865 227.465 306.865 227.578 306.865 227.803V228.141H307.007C307.149 228.592 307.576 228.93 308.145 229.042L341.718 244.584C343.567 245.372 345.843 245.372 347.835 244.584L381.408 229.042C381.977 228.93 382.404 228.592 382.546 228.141H382.689V45.4688Z" fill="url(#paint6_linear)"/>
<path fill-rule="evenodd" clip-rule="evenodd" d="M381.407 47.6677L347.835 67.0213C345.986 68.003 343.71 68.003 341.718 67.0213L308.146 47.6677C307.15 47.3872 306.581 46.2652 307.008 45.2835C307.15 44.7226 307.577 44.3018 308.146 44.1616L341.718 24.8081C343.567 23.8264 345.843 23.8264 347.835 24.8081L381.407 44.1616C382.403 44.4421 382.972 45.5642 382.545 46.5459C382.403 46.9666 381.976 47.3872 381.407 47.6677Z" fill="url(#paint7_linear)"/>
<path fill-rule="evenodd" clip-rule="evenodd" d="M332.5 39.2164C325.596 43.2018 325.596 49.6634 332.5 53.6489C339.404 57.6343 350.596 57.6343 357.5 53.6489C364.404 49.6634 364.404 43.2018 357.5 39.2164C350.596 35.2309 339.404 35.2309 332.5 39.2164ZM343.821 42.8031C344.784 42.2473 346.266 42.0745 347.603 42.3555C349 42.6478 349.866 43.3623 349.921 44.2786C350.062 46.4636 349.869 48.1933 349.859 48.211C349.846 48.2993 349.783 48.3704 349.679 48.4302C349.576 48.49 349.452 48.5264 349.299 48.5337C349.269 48.5399 346.271 48.6626 342.484 48.5696C340.906 48.5318 339.668 48.0324 339.151 47.2321C338.664 46.461 338.963 45.606 339.927 45.0502C340.89 44.4944 341.922 44.3729 342.726 44.4181C342.647 43.9545 342.858 43.3589 343.821 42.8031Z" fill="black" fill-opacity="0.25"/>
<path fill-rule="evenodd" clip-rule="evenodd" d="M142.585 302.234H66.9036V340.141C66.9036 340.252 66.9036 340.363 66.9036 340.363V340.697H67.0459C67.1881 341.142 67.6149 341.475 68.1839 341.586L101.757 356.927C103.606 357.705 105.883 357.705 107.874 356.927L141.447 341.586C142.016 341.475 142.443 341.142 142.585 340.697H142.728V302.234H142.585Z" fill="url(#paint8_linear)"/>
<path fill-rule="evenodd" clip-rule="evenodd" d="M141.446 303.542L107.874 322.895C106.025 323.877 103.749 323.877 101.757 322.895L68.185 303.542C67.1892 303.261 66.6202 302.139 67.0469 301.158C67.1892 300.597 67.616 300.176 68.185 300.036L101.757 280.682C103.606 279.7 105.883 279.7 107.874 280.682L141.446 300.036C142.442 300.316 143.011 301.438 142.584 302.42C142.442 302.841 142.015 303.261 141.446 303.542Z" fill="url(#paint9_linear)"/>
<path fill-rule="evenodd" clip-rule="evenodd" d="M91.5 308.649C84.5964 304.663 84.5964 298.202 91.5 294.216C98.4036 290.231 109.596 290.231 116.5 294.216C123.404 298.202 123.404 304.663 116.5 308.649C109.596 312.634 98.4036 312.634 91.5 308.649ZM101.355 302.547L102.712 303.33L104.965 302.03C105.457 302.419 105.992 303.409 104.42 304.316C103.064 305.099 100.838 305.091 99.4584 304.295C98.0787 303.498 98.0654 302.213 99.4214 301.43C100.193 300.985 101.037 300.876 101.615 300.869L101.658 299.649C100.321 299.677 99.0348 299.969 97.9624 300.588C95.7667 301.856 95.7608 303.903 97.9492 305.166C100.138 306.429 103.683 306.426 105.879 305.158C108.171 303.835 108.086 302.03 105.824 300.724C105.564 300.574 105.338 300.476 105.106 300.382L101.355 302.547ZM108.731 298.289L109.866 297.634L110.997 298.287L109.862 298.942L110.993 299.595L109.858 300.25L108.727 299.597L107.593 300.252L106.462 299.599L107.596 298.944L106.465 298.291L107.6 297.636L108.731 298.289Z" fill="black" fill-opacity="0.25"/>
<path fill-rule="evenodd" clip-rule="evenodd" d="M222.307 301.545V226.453H147.188V303.114H147.329C147.47 303.562 147.892 303.898 148.456 304.01L181.717 319.477C183.55 320.262 185.805 320.262 187.778 319.477L221.039 304.01C221.039 304.235 221.039 304.235 221.039 304.235C222.166 304.235 223.012 303.562 223.012 302.666C223.012 302.105 222.73 301.769 222.307 301.545Z" fill="url(#paint10_linear)"/>
<path fill-rule="evenodd" clip-rule="evenodd" d="M220.854 227.76L187.676 247.114C185.849 248.096 183.6 248.096 181.631 247.114L148.454 227.76C147.47 227.48 146.908 226.358 147.33 225.376C147.47 224.815 147.892 224.395 148.454 224.254L181.631 204.901C183.459 203.919 185.708 203.919 187.676 204.901L220.854 224.254C221.838 224.535 222.4 225.657 221.978 226.639C221.697 227.2 221.275 227.62 220.854 227.76Z" fill="url(#paint11_linear)"/>
<g opacity="0.25">
<path fill-rule="evenodd" clip-rule="evenodd" d="M172.5 219.216C165.596 223.202 165.596 229.663 172.5 233.649C179.404 237.634 190.596 237.634 197.5 233.649C204.404 229.663 204.404 223.202 197.5 219.216C190.596 215.231 179.404 215.231 172.5 219.216ZM186.172 226.477L191.381 229.484L189.349 230.657L184.14 227.65L183.124 228.237L181.329 227.2L182.345 226.614L181.267 225.992C179.803 225.147 179.505 224.313 181.134 223.372L182.49 222.59L184.285 223.626L183.438 224.115C182.804 224.481 183.013 224.65 183.481 224.921L184.377 225.441L185.913 224.554L187.528 225.694L186.172 226.477Z" fill="black"/>
</g>
<path fill-rule="evenodd" clip-rule="evenodd" d="M347.453 124.294C366.854 113.024 382.689 122.181 382.689 144.58C382.689 166.979 366.996 194.309 347.453 205.579C327.909 216.849 312.217 207.692 312.217 185.293C312.217 162.893 328.052 135.564 347.453 124.294Z" fill="url(#paint12_linear)"/>
<path fill-rule="evenodd" clip-rule="evenodd" d="M401.636 117.966L464.757 155.467L395.017 273.4L402.233 277.483C405.906 277.332 409.578 277.04 413.251 276.38L431.417 305.456C431.417 305.456 433.388 334.533 433.529 342.192C433.67 349.851 431.417 350.844 431.417 350.844L406.773 363.751L406.764 363.603C405.956 363.868 405 363.787 403.944 363.289C403.944 363.289 387.391 354.726 377.973 348.41C368.555 342.093 366.13 335.777 364.988 328.197L354.637 250.885L341.474 243.017C328.089 240.479 319.353 228.073 319.353 208.194C319.353 176.615 341.333 138.409 368.526 122.619C381.206 115.288 392.76 114.16 401.495 118.248L401.636 117.966Z" fill="url(#paint13_linear)"/>
<path fill-rule="evenodd" clip-rule="evenodd" d="M404.99 277.939L407.103 308.988L417.807 310.259L428.512 303.766L431.751 298.403L417.807 273.705L404.99 277.939Z" fill="#C1D1E4"/>
<path fill-rule="evenodd" clip-rule="evenodd" d="M404.99 277.548L418.817 271.03L432.643 297.949L416.722 307.584L404.99 277.548Z" fill="#DDE2E8"/>
<path fill-rule="evenodd" clip-rule="evenodd" d="M431.751 160.102C458.883 144.323 480.814 157.144 480.814 188.562C480.814 219.98 458.883 258.302 431.751 274.081C404.619 289.861 382.689 277.04 382.689 245.622C382.689 214.204 404.619 175.882 431.751 160.102ZM429.642 175.318C449.043 163.906 464.928 173.205 464.928 195.888C464.928 218.571 449.183 246.326 429.642 257.738C410.102 269.15 394.357 259.851 394.357 237.168C394.357 214.485 410.242 186.73 429.642 175.318Z" fill="url(#paint14_linear)"/>
<path fill-rule="evenodd" clip-rule="evenodd" d="M510.553 172.806C542.74 173.369 563.774 162.262 563.774 162.262C563.774 162.262 518.882 190.521 490.365 234.106C461.849 277.69 447.732 350.378 447.732 350.378C443.874 312.293 414.568 278.751 403.217 267.055C396.033 262.595 391.609 253.443 391.609 240.544C391.609 214.088 410.076 182.003 433.089 168.775C444.596 162.161 454.966 161.598 462.495 165.96C463.212 166.376 463.902 166.836 464.564 167.34L464.672 167.183C464.672 167.183 478.366 172.244 510.553 172.806Z" fill="#DDE2E8"/>
<path fill-rule="evenodd" clip-rule="evenodd" d="M397.565 213.08L451.503 251.395C457.716 254.916 470.988 252.662 476.354 243.929C476.354 243.929 450.514 296.048 448.396 356.619C448.396 356.619 433.994 306.895 419.31 288.582C404.625 270.27 407.026 272.102 399.542 265.199C392.2 258.156 384.999 236.182 397.565 213.08Z" fill="#C7CBD1"/>
<path fill-rule="evenodd" clip-rule="evenodd" d="M570.019 174.584C627.656 141.639 674.389 168.39 674.389 234.139C674.389 299.889 627.656 380 570.019 412.945C512.382 445.89 465.649 419.14 465.649 353.39C465.649 287.64 512.382 207.53 570.019 174.584Z" fill="#DDE2E8"/>
<path fill-rule="evenodd" clip-rule="evenodd" d="M640.491 153.911C640.491 153.911 556.977 116.723 484.308 228.852C412.061 340.559 457.127 420.712 482.195 427.051C472.9 409.866 436.847 348.448 501.489 240.685C547.119 182.085 575.99 163.631 640.491 153.911Z" fill="url(#paint15_linear)"/>
<path fill-rule="evenodd" clip-rule="evenodd" d="M456.729 359.43C456.729 287.869 507.075 200.842 569.126 165.132C631.319 129.281 681.665 158.383 681.524 229.945C681.524 301.506 631.178 388.533 569.126 424.243C507.075 459.954 456.729 430.992 456.729 359.43ZM469.421 351.979C469.421 415.527 513.985 441.255 569.126 409.481C624.268 377.707 668.832 300.803 668.832 237.255C668.832 173.708 624.268 147.979 569.126 179.753C553.755 188.61 539.229 200.983 526.255 215.604L526.044 215.415C505.443 238.671 488.79 267.361 478.877 296.757L479.152 296.867C472.947 315.425 469.421 334.264 469.421 351.979Z" fill="url(#paint16_linear)"/>
<path d="M546.825 234.251L526.303 215.755C505.639 238.875 488.937 267.459 479.03 296.744L503.799 306.693C513.848 259.332 546.825 234.251 546.825 234.251Z" fill="url(#paint17_linear)"/>
<path fill-rule="evenodd" clip-rule="evenodd" d="M549.215 236.775C544.008 229.113 534.065 227.595 522.74 234.154C505.938 243.802 492.411 267.015 492.411 286.172C492.411 299.052 498.526 306.749 507.64 307.52L556.28 328.09L589.644 271.442L549.215 236.775Z" fill="#C7CBD1"/>
<path fill-rule="evenodd" clip-rule="evenodd" d="M573.142 273.314C585.731 265.912 595.888 271.891 595.888 286.696C595.888 301.501 585.731 319.295 573.142 326.698C560.552 334.1 550.395 328.121 550.395 313.316C550.252 298.511 560.552 280.717 573.142 273.314Z" fill="url(#paint18_linear)"/>
<path opacity="0.1" fill-rule="evenodd" clip-rule="evenodd" d="M377.368 442.187L331.655 469.098C319.804 476.038 300.616 476.038 288.764 469.098L284.531 466.548C272.68 459.608 272.68 448.277 284.531 441.337L330.244 414.425C342.096 407.485 361.284 407.485 373.136 414.425L377.368 416.975C389.22 423.915 389.22 435.246 377.368 442.187Z" fill="black"/>
<path fill-rule="evenodd" clip-rule="evenodd" d="M353.647 324.766L350.679 290.645C350.679 290.645 345.733 302.439 329.904 306.933C307.714 313.392 292.733 303.984 292.733 303.984L292.598 320.22C292.484 320.166 292.375 320.115 292.272 320.066L291.704 382.535C291.642 382.515 291.582 382.494 291.521 382.474L290.808 450.231L305.794 445.714L315.693 384.178C315.8 384.158 315.907 384.137 316.015 384.116L325.458 324.916L325.522 324.906V324.625C325.524 324.577 325.525 324.529 325.527 324.483L325.598 324.042L325.559 324.048C326.008 319.94 330.045 327.574 330.045 327.574C330.045 327.574 340.504 421.512 341.917 428.252C343.33 434.992 346.439 434.15 346.439 434.15L361.279 431.201L353.647 324.766Z" fill="#314F67"/>
<path fill-rule="evenodd" clip-rule="evenodd" d="M356.819 171.609L374.483 158.206C376.446 156.654 377.988 154.538 378.97 152.28C380.652 148.33 386.4 131.4 386.4 131.4C386.4 131.4 386.4 123.64 392.288 120.959C392.288 120.959 397.195 117.573 393.83 126.885C392.428 130.412 392.568 129.707 395.372 128.437C398.176 127.167 402.522 124.627 396.914 134.362C395.793 138.877 392.428 138.877 392.428 138.877L386.54 159.758V161.31C385.418 165.119 383.736 165.966 379.11 170.198C374.483 174.431 358.501 188.116 358.501 188.116L356.819 171.609Z" fill="#E7AA8A"/>
<path fill-rule="evenodd" clip-rule="evenodd" d="M299.889 192.8C297.192 196.462 288.674 197.307 289.384 216.6C290.094 235.893 292.365 268.565 292.365 268.565C292.365 268.565 292.365 288.984 287.822 301.236C287.822 301.236 284.841 302.504 292.365 305.743C299.889 308.982 309.968 310.39 322.319 310.249C334.669 310.108 343.471 305.461 350.711 293.913C352.983 290.533 350.711 276.028 350.711 276.028C350.711 276.028 346.878 227.866 347.73 213.643C347.872 203.785 347.73 200.264 347.73 200.264C347.73 200.264 348.156 196.039 353.692 194.349C359.229 192.66 361.074 193.786 361.216 185.477C361.358 177.169 361.216 172.099 361.216 172.099C361.216 172.099 362.636 166.466 347.73 175.056C332.824 183.647 331.262 182.52 331.262 182.52L307.413 185.477C304.574 187.449 302.018 189.984 299.889 192.8Z" fill="#F7FAFB"/>
<path fill-rule="evenodd" clip-rule="evenodd" d="M309.022 179.201C309.022 179.201 331.606 186.047 335.534 196.946C339.462 207.844 342.127 214.83 340.023 227.824C337.919 240.818 324.452 249.201 316.457 266.107C308.461 283.013 317.569 310.259 317.569 310.259C304.703 310.147 297.641 308.825 285.455 304.39C285.455 304.39 293.451 267.225 292.89 242.494C292.329 217.764 281.808 209.381 309.022 179.201Z" fill="#E5ECF0"/>
<path fill-rule="evenodd" clip-rule="evenodd" d="M332.705 230.911L349.182 250.307C349.182 250.307 349.324 252.005 356.71 251.864C364.096 251.722 385.118 251.864 385.118 251.864C386.965 249.74 389.806 248.608 392.646 248.891C397.476 249.316 408.839 252.855 394.209 262.341C391.794 263.19 389.095 263.19 386.681 262.341L349.324 263.898C349.324 263.898 344.921 263.473 338.813 259.367C332.705 255.262 319.353 248.891 319.353 248.891L332.705 230.911Z" fill="#E7AA8A"/>
<path fill-rule="evenodd" clip-rule="evenodd" d="M292.592 201.044C297.131 192.875 301.185 194.399 307.248 200.743C313.31 207.087 334.599 228.797 334.599 228.797C334.599 228.797 337.842 229.502 331.357 236.551C324.871 243.6 320.078 249.098 320.078 249.098C320.078 249.098 317.258 254.314 313.592 249.098C309.926 243.882 294.547 230.724 290.808 214.417C289.849 210.235 288.053 209.213 292.592 201.044Z" fill="#F7FAFB"/>
<path fill-rule="evenodd" clip-rule="evenodd" d="M329.709 158.1C331.978 163.698 332.97 169.715 332.687 175.873C332.403 178.392 332.119 184.69 329.709 184.69C316.24 184.55 319.217 193.507 319.217 193.507C319.217 193.507 323.045 197.426 313.262 193.507C303.479 189.588 304.755 187.489 305.748 183.151C306.74 178.812 304.188 162.438 304.188 162.438C304.188 162.438 323.329 156.42 329.709 158.1Z" fill="#EBAA87"/>
<path fill-rule="evenodd" clip-rule="evenodd" d="M312.361 165.606C312.361 165.606 310.385 162.561 307.845 165.606C305.305 168.65 310.668 167.958 310.809 171.418C310.95 174.878 309.256 183.043 309.256 183.043C309.256 183.043 305.164 188.44 301.777 183.043C298.39 177.646 300.224 171.557 300.224 164.084C300.224 156.611 301.636 150.383 307.704 149.553C313.772 148.722 320.829 148.169 327.038 151.075C333.248 153.981 334.518 158.548 334.518 162.7C334.518 166.851 327.038 159.794 327.038 159.794C325.063 158.133 322.099 158.271 320.405 160.07C320.123 160.347 319.841 160.762 319.559 161.177C316.736 166.298 316.877 167.958 312.361 165.606Z" fill="#FAD1AA"/>
<path fill-rule="evenodd" clip-rule="evenodd" d="M297.992 440.477C305.386 439.751 304.817 439.606 304.817 439.606C304.817 439.606 307.234 438.59 310.505 444.105C313.776 449.62 316.904 453.683 316.904 453.683C316.904 453.683 320.174 460.069 312.211 457.747C304.248 455.425 288.749 450.491 288.749 450.491C288.749 450.491 286.9 450.2 289.602 443.525C291.166 439.897 291.024 439.897 291.024 439.897C293.299 440.187 295.716 440.477 297.992 440.477Z" fill="#906058"/>
<path fill-rule="evenodd" clip-rule="evenodd" d="M342.884 423.728C342.884 423.728 344.463 426.751 353.505 425.311C355.515 425.024 357.668 424.592 359.533 423.728C359.533 423.728 360.107 422.289 364.126 426.751C367.858 430.637 371.877 434.091 376.182 437.402C376.182 437.402 377.761 438.409 373.168 440.424C369.437 440.136 346.042 435.818 346.042 435.818C346.042 435.818 342.31 435.962 341.449 429.773C340.875 425.167 339.87 425.168 339.87 425.168C339.87 425.168 341.162 422.721 342.884 423.728Z" fill="#906058"/>
<defs>
<linearGradient id="paint0_linear" x1="398.753" y1="548.406" x2="398.753" y2="145.308" gradientUnits="userSpaceOnUse">
<stop stop-color="#38246B"/>
<stop offset="1" stop-color="#8131AE"/>
</linearGradient>
<linearGradient id="paint1_linear" x1="398.753" y1="559.105" x2="398.753" y2="156.006" gradientUnits="userSpaceOnUse">
<stop stop-color="#38246B"/>
<stop offset="1" stop-color="#8131AE"/>
</linearGradient>
<linearGradient id="paint2_linear" x1="147.524" y1="343.231" x2="147.524" y2="5.10415" gradientUnits="userSpaceOnUse">
<stop stop-color="#54F3E9"/>
<stop offset="1" stop-color="#22B4FF"/>
</linearGradient>
<linearGradient id="paint3_linear" x1="147.662" y1="345.045" x2="147.662" y2="177.372" gradientUnits="userSpaceOnUse">
<stop stop-color="#54F3E9"/>
<stop offset="1" stop-color="#22B4FF"/>
</linearGradient>
<linearGradient id="paint4_linear" x1="264.965" y1="132.806" x2="264.965" y2="282.593" gradientUnits="userSpaceOnUse">
<stop stop-color="#CA54B1"/>
<stop offset="0.677083" stop-color="#9D2D6E"/>
</linearGradient>
<linearGradient id="paint5_linear" x1="264.954" y1="154.232" x2="264.954" y2="110.474" gradientUnits="userSpaceOnUse">
<stop stop-color="#9D2D6E"/>
<stop offset="1" stop-color="#CA54B1"/>
</linearGradient>
<linearGradient id="paint6_linear" x1="344.732" y1="45.4474" x2="344.732" y2="245.075" gradientUnits="userSpaceOnUse">
<stop stop-color="#CA54B1"/>
<stop offset="0.697917" stop-color="#9D2D6E"/>
</linearGradient>
<linearGradient id="paint7_linear" x1="344.856" y1="67.7248" x2="344.856" y2="23.9673" gradientUnits="userSpaceOnUse">
<stop stop-color="#9D2D6E"/>
<stop offset="1" stop-color="#CA54B1"/>
</linearGradient>
<linearGradient id="paint8_linear" x1="104.746" y1="302.192" x2="104.746" y2="357.52" gradientUnits="userSpaceOnUse">
<stop stop-color="#CA54B1"/>
<stop offset="0.901042" stop-color="#9D2D6E"/>
</linearGradient>
<linearGradient id="paint9_linear" x1="104.848" y1="323.625" x2="104.848" y2="279.871" gradientUnits="userSpaceOnUse">
<stop stop-color="#9D2D6E"/>
<stop offset="1" stop-color="#CA54B1"/>
</linearGradient>
<linearGradient id="paint10_linear" x1="185.075" y1="226.488" x2="185.075" y2="320.114" gradientUnits="userSpaceOnUse">
<stop stop-color="#CA54B1"/>
<stop offset="0.828125" stop-color="#9D2D6E"/>
</linearGradient>
<linearGradient id="paint11_linear" x1="184.607" y1="247.866" x2="184.607" y2="204.108" gradientUnits="userSpaceOnUse">
<stop stop-color="#9D2D6E"/>
<stop offset="1" stop-color="#CA54B1"/>
</linearGradient>
<linearGradient id="paint12_linear" x1="382.703" y1="130.229" x2="313.151" y2="200.659" gradientUnits="userSpaceOnUse">
<stop stop-color="#515967"/>
<stop offset="1" stop-color="#2C3547"/>
</linearGradient>
<linearGradient id="paint13_linear" x1="372.554" y1="113.118" x2="415.668" y2="273.925" gradientUnits="userSpaceOnUse">
<stop stop-color="#0F62B0"/>
<stop offset="1" stop-color="#1793CA"/>
</linearGradient>
<linearGradient id="paint14_linear" x1="395.082" y1="280.841" x2="468.753" y2="153.52" gradientUnits="userSpaceOnUse">
<stop stop-color="#2C3547"/>
<stop offset="1" stop-color="#515967"/>
</linearGradient>
<linearGradient id="paint15_linear" x1="542.852" y1="427.068" x2="542.852" y2="148.005" gradientUnits="userSpaceOnUse">
<stop stop-color="#0F62B0"/>
<stop offset="1" stop-color="#1793CA"/>
</linearGradient>
<linearGradient id="paint16_linear" x1="500.468" y1="148.878" x2="500.468" y2="440.378" gradientUnits="userSpaceOnUse">
<stop stop-color="#0F62B0"/>
<stop offset="1" stop-color="#1793CA"/>
</linearGradient>
<linearGradient id="paint17_linear" x1="531.824" y1="297.903" x2="490.105" y2="224.914" gradientUnits="userSpaceOnUse">
<stop stop-color="#515967"/>
<stop offset="1" stop-color="#2C3547"/>
</linearGradient>
<linearGradient id="paint18_linear" x1="595.912" y1="277.262" x2="550.537" y2="322.862" gradientUnits="userSpaceOnUse">
<stop stop-color="#0F62B0"/>
<stop offset="1" stop-color="#1793CA"/>
</linearGradient>
</defs>
</svg>
