<svg id="Capa_1" data-name="Capa 1" xmlns="http://www.w3.org/2000/svg" viewBox="0 0 800 800"><defs><style>.cls-1{fill:#fff7d2;}.cls-2{fill:#dcfcff;}.cls-3{fill:#a58153;}</style></defs><title>Logo</title><path d="M595,159.4c-.54,0-1.09-.08-1.66-.13H504.58c-11.69-6.7-17.28-20-10.76-32.32a50.71,50.71,0,0,0,5.6-16.86c.76-5.87-2.32-11.2-9.31-13.51-7.36-2.44-14.95-2-20.17,3.35-4,4-6.64,9.17-9,14.13s-3.5,10-5.2,15.14c-5.69-2.35-7.8-6.73-6.42-13.06,2.14-9.89,8.55-17.55,17.35-23.87,6.89-5,11.6-10.9,12.57-18.81,1.85-15-11.09-24.29-28-19.89-25.11,6.53-49,32-51.88,54.49-2.22,17.43,1.66,33.82,9.55,49.73.26.51.54,1.08.81,1.63H382.92c-12.94,0-23.62,10.14-23.87,22.3-.29,13.56,9.5,23.94,23.17,24.55l5.32.25c.09,9.62.23,19.19.14,28.77-18.88-17.24-58-48.23-87.28-39.41-15.74,4.73-26.17,19.82-31,45.07-.17,1.19-4.15,29.6,4.15,52.81,2.37,6.63,1.25,12.75-3.06,16.81-5.11,4.79-13.42,5.55-21.19,1.89-2.68-1.24-26.51-11.83-41-1.89-7.31,5-10.73,14-10.17,26.66.54,12.07,4.75,22.28,12,30.31-6.44-1.54-12.85-3.22-19.23-5.11-7.23-1.52-9.77-2.67-17.95-4.4,4.3,5.54,10.55,15.56,14.44,21.51,19.76,30.25,48.47,49.87,82.17,61.66,43.22,15.11,87.57,15.65,131.91,5.79,48.8-10.85,87.36-38.1,117.57-77.35,35.59-46.25,55.51-99.37,66.86-156.07,1.43-7.14,1.25-7.17,8.45-7.31,13.44-.26,23.89-10.44,24-23.36C618.42,170.32,608.13,160,595,159.4ZM376.55,308c-15.08,33.93-40.17,56-77,63.35-11.74,2.34-23.85,2.8-35.79,4.12a275.57,275.57,0,0,1-28.12-3,54,54,0,0,1-10.29-4.8c-11-6.85-16.9-17.23-17.5-30.85-.4-8.95,1.58-15,5.88-17.94,8.16-5.65,24.13-.7,31.43,2.69,11.37,5.32,23.89,3.91,31.89-3.63,7.24-6.81,9.34-17.11,5.62-27.55-7.44-20.81-3.7-47.68-3.71-47.71,4.07-21.08,12.21-33.6,24.17-37.19,28.1-8.45,70.77,30.09,84.22,43.18a229,229,0,0,1-5.49,43.45A164.67,164.67,0,0,1,376.55,308Z"/><path class="cls-1" d="M402.4,206.74c0,2.8.09,5.09,0,7.37-1,21.94-.26,44.13-3.61,65.7-2,12.69,2,18.17,11.43,24.19,32.26,20.64,66.86,34.25,105.2,37.82,4.05.38,6.21-.86,8.31-4.28,18.41-30.1,31.57-62.4,40.68-96.38,3-11.24,5.4-22.64,8.19-34.42Z"/><path class="cls-1" d="M497,373.53c-43.26-4.42-79.81-21.14-112.49-46.87a10.14,10.14,0,0,0-.93,1c-21.72,35.68-53.25,55.9-94.85,60.42-1.28.14-3.15,2.19-3.37,3.57-1.81,11.07-3.14,22.22-4.94,33.28-.68,4.13,1.48,5.07,4.63,5.94,24.28,6.68,48.94,8.54,74.06,7.14,46.07-2.56,87.07-17.38,121.59-48.57C486,384.69,490.93,379.48,497,373.53Z"/><path class="cls-2" d="M423.75,158.58c-3.83-7.89-8.16-15.72-10.56-24-8.19-28.16,2.66-54.07,28.53-68.89a46,46,0,0,1,15.74-5.54c9.63-1.41,15.84,6.18,11.43,13.68-1.92,3.27-5.13,6.17-8.37,8.63-9.65,7.34-16.38,16.13-19.36,26.91-2,7-2.37,14.13,1.85,20.73,2.93,4.58,7.38,7.69,13.85,7.53s8.61-4.53,10.4-8.71c2.12-4.93,3.43-10.12,5.42-15.1a27.07,27.07,0,0,1,4.45-7.94,8.21,8.21,0,0,1,10.73-1.63c1.75,1.17,1.89,4.95,1.49,7.39s-2.25,4.86-3.67,7.19c-8.33,13.57-6.7,26.33,4.14,38.36.51.58,1.1,1.21,1.64,1.8H424.08C424,158.88,423.82,158.72,423.75,158.58Z"/><path class="cls-3" d="M488.52,191.48v-.3q44.61,0,89.24,0c6.11,0,12.25.5,18.32,0,2.37-.19,6.16-2.06,6.58-3.8,2.18-9.2.46-13.61-8.57-13.19-1.48.06-3,0-4.46,0H401.22c-6.78,0-13.56-.15-20.32.15-5.41.23-7.19,2.62-7.19,8.52s1.73,8,7.23,8.48c2.63.21,5.28.14,7.92.14Q438.69,191.5,488.52,191.48Z"/><path class="cls-3" d="M514.36,351.53c-45.05-4.73-84.48-21.16-120.06-47a8.43,8.43,0,0,0-.91,1.2,73.22,73.22,0,0,1-2.94,7.33c-1.68,3.17-1.08,5.13,1.83,7.4,32.06,24.9,67.73,40.72,108.63,43.43a7.32,7.32,0,0,0,5.2-1.71C508.91,359.19,511.18,355.72,514.36,351.53Z"/><path class="cls-3" d="M208.71,383.56c15.79,17.76,34.7,30.86,57,40.43q2.44-17.91,4.59-33.6Z"/><path d="M514.13,348.07c-7,2.66-14,5.3-20.94,8a41.35,41.35,0,0,0-7,3.18A79.63,79.63,0,0,1,482.6,342,4.05,4.05,0,0,0,478,338.3a3.62,3.62,0,0,0-5.25-1.56c-7.66,4.64-16.25,7.13-24.06,11.28a172.72,172.72,0,0,1-7.43-20.7,3.83,3.83,0,0,0-5.3-2.36c-9.54.15-19.08,0-28.62-.18-2.61-8.11-5.27-16.21-8.33-24.16-1.78-4.64-9.32-2.62-7.52,2.07,2.92,7.59,5.44,15.32,7.95,23.05-2,2-1.26,6.36,2.32,6.73.08.26.19.52.27.78,1.31,4.28,7.42,3.08,7.65-.66,8.37.16,16.75.28,25.13.15A157.22,157.22,0,0,0,442,352.23c-.17.13-.36.21-.53.34-3.48,2.74.44,7.31,4.09,6.24,2.59,2.84,7.58-.1,6.39-3.84,7.37-4.18,15.73-6.61,23.15-10.74a89.2,89.2,0,0,0,5,21.82,3.94,3.94,0,0,0,1.07,1.55c1.13,2.68,5.19,4,6.87.67,2.13-4.19,9.34-5.51,13.5-7.1l14.66-5.59C520.84,353.81,518.83,346.27,514.13,348.07Z"/><path d="M455,166c-12.25,4-24.18,8.74-36,13.86l-27-14.05c-4.17-2.18-7.88,4.15-3.7,6.33l22.15,11.54q-12.4,5.59-24.71,11.46c-4.26,2-.54,8.35,3.7,6.33,9.7-4.62,19.43-9.17,29.25-13.5l24.44,12.74c4.18,2.18,7.89-4.14,3.7-6.33l-19.44-10.13c9.67-4.07,19.45-7.91,29.47-11.18C461.45,171.62,459.54,164.55,455,166Z"/><path d="M593.8,166.46a217,217,0,0,0-26.39,12,279.62,279.62,0,0,1-22-17.59,3.76,3.76,0,0,0-6,1.68,2.82,2.82,0,0,0-3.2-.55c-13.19,5.3-26.05,11.25-38.76,17.54-8.48-4.12-17-8.12-25.66-11.93-4.28-1.89-8,4.42-3.7,6.33,7.13,3.15,14.17,6.5,21.21,9.86-5.9,3.05-11.88,5.94-17.67,9.22-4.11,2.32-.42,8.65,3.7,6.32,7.28-4.12,14.75-7.85,22.2-11.62,8.32,4.1,16.59,8.31,24.77,12.71,4.15,2.23,7.86-4.09,3.7-6.33-6.78-3.65-13.66-7.09-20.54-10.53,10.72-5.19,21.61-10.05,32.7-14.5a3.73,3.73,0,0,0,2.33-3c6.51,5.77,13.32,11.11,20.28,16.25-5.87,3.45-11.64,7.1-17.19,11.14-3.78,2.75-.13,9.11,3.69,6.33A212.55,212.55,0,0,1,567.33,187c6.62,4.61,13.32,9.12,20.33,13.18,4,2.32,7.64-3.89,3.63-6.21-5.79-3.35-11.27-7.13-16.78-10.85a202.2,202.2,0,0,1,21.24-9.59C600.11,171.87,598.22,164.78,593.8,166.46Z"/><path d="M254.05,387.47a3.72,3.72,0,0,0-5.26-1.78,4.22,4.22,0,0,0-2.68.43c-6.07,3.21-12.25,6.17-18.5,9a133,133,0,0,0-6.3-18.63c-2.26-5.24-9.92-.71-7.68,4.49a114.27,114.27,0,0,1,5.79,17.78l-.9.41c-5.21,2.16-2.93,10.77,2.36,8.57l.71-.31c1.61,4.67,9.29,2.34,8.31-3,0-.2-.11-.39-.14-.6,6.16-2.74,12.26-5.64,18.26-8.75,4.92,9.4,11,18.23,14.24,28.4,1.73,5.44,10.32,3.11,8.57-2.36C267,409,259.49,398.81,254.05,387.47Z"/><path d="M551.59,229.39c5.72,0,5.73-8.89,0-8.89s-5.73,8.89,0,8.89Z"/><path d="M539.25,257.1A326.11,326.11,0,0,1,518.85,309c-2.53,5.11,5.14,9.62,7.68,4.49a340.79,340.79,0,0,0,21.3-54c1.64-5.49-6.94-7.84-8.58-2.36Z"/><path d="M385.76,349.43c5.72,0,5.73-8.89,0-8.89s-5.73,8.89,0,8.89Z"/><path d="M370.06,357.11c-13.45,18.62-37.39,29.3-59.19,33.95-5.6,1.2-3.23,9.77,2.36,8.58,24.33-5.2,49.63-17.44,64.51-38,3.35-4.65-4.36-9.09-7.68-4.49Z"/><path d="M156.36,588.51v-25q0-16.87-15.75-16.89T125,563.49v4.57q0,18,33.64,42.17t33.66,58.41v47.25q0,52.33-51.56,52.32T89.05,715.89V682.36h36v33.53q0,16.75,15.61,16.89h.25q15.51,0,15.5-16.89V669.41q0-16.63-33.66-40.77T89.05,571.11v-7.62q0-52.46,51.56-52.45t51.69,52.45v25Z"/><path d="M337.31,768.21H299.2L257.43,625.35V768.21H220.37V511.3h37.06v85.64l39.42-85.64h39.67l-49,99.91Z"/><path d="M415.29,570.22l-26.19,198H351.78L390,511.3h50.8l38.11,256.91H441.47Z"/><path d="M494.49,768.21V511.3h37.06V731.68H590.6v36.53Z"/><path d="M606.15,768.21V511.3h37.06V731.68h59v36.53Z"/></svg>