<svg xmlns="http://www.w3.org/2000/svg" xmlns:xlink="http://www.w3.org/1999/xlink" width="120" height="120" viewBox="0 0 120 120">
    <defs>
        <path id="prefix__a" d="M59.632 0h.736c12.56 0 23.207 2.506 32.007 7.213 8.8 4.706 15.706 11.612 20.412 20.412 4.707 8.8 7.213 19.447 7.213 32.007v.736c0 12.56-2.506 23.207-7.213 32.007-4.706 8.8-11.612 15.706-20.412 20.412-8.8 4.707-19.447 7.213-32.007 7.213h-.736c-12.56 0-23.207-2.506-32.007-7.213-8.8-4.706-15.706-11.612-20.412-20.412C2.506 83.575 0 72.928 0 60.368v-.736c0-12.56 2.506-23.207 7.213-32.007 4.706-8.8 11.612-15.706 20.412-20.412C36.425 2.506 47.072 0 59.632 0z"/>
    </defs>
    <g fill="none" fill-rule="evenodd">
        <mask id="prefix__b" fill="#fff">
            <use xlink:href="#prefix__a"/>
        </mask>
        <use fill="#FFF" xlink:href="#prefix__a"/>
        <g mask="url(#prefix__b)">
            <g>
                <path fill="#FFF" d="M65.578 0H33.52l-8.377 17.951c-2.494 5.345.294 9.718 6.195 9.718H63.395l8.378-17.951C74.267 4.373 71.478 0 65.578 0" transform="translate(12 39)"/>
                <path fill="#0F206C" d="M52.671 26.285c-6.1 0-11.133-3.329-11.919-7.643-4.94-1.097-8.534-4.46-8.534-8.44 0-1.005.23-1.971.652-2.871L36.29 0h-2.77l-8.377 17.95c-2.494 5.345.294 9.719 6.195 9.719h25.135l.984-2.11c-1.466.467-3.085.726-4.786.726" transform="translate(12 39)"/>
                <path fill="#0F206C" d="M43.601 16.239c.213.01.428.016.645.016 4.47 0 8.2-2.071 9.068-4.825-.213-.01-.427-.016-.643-.016-4.47 0-8.201 2.07-9.07 4.825" transform="translate(12 39)"/>
                <path fill="#0F206C" d="M65.578 0H40.442l-.983 2.11c1.466-.466 3.084-.726 4.787-.726 6.097 0 11.132 3.327 11.917 7.641 4.939 1.098 8.535 4.461 8.535 8.44 0 1.006-.23 1.971-.653 2.872l-3.42 7.332h2.77l8.378-17.951C74.267 4.373 71.478 0 65.578 0" transform="translate(12 39)"/>
                <path fill="#0F206C" d="M43.717 19.012c1.046 2.592 4.657 4.506 8.954 4.506 5.112 0 9.257-2.71 9.257-6.053 0-2.559-2.43-4.745-5.865-5.631-1.043 4.091-5.935 7.188-11.817 7.188-.178 0-.355-.005-.529-.01M44.246 4.15c-5.115 0-9.26 2.71-9.26 6.053 0 2.559 2.431 4.745 5.866 5.63 1.044-4.09 5.936-7.187 11.82-7.187.175 0 .35.005.525.01-1.045-2.593-4.656-4.506-8.951-4.506M8.878 38.925l1.092-2.203h.02l.384 2.203H8.878zm2.432-4.338H9.346l-3.76 6.916h1.908l.669-1.202h2.48l.258 1.202h1.919l-1.51-6.916zM14.473 34.587L16.272 34.587 18.898 38.817 18.916 38.817 19.585 34.587 21.384 34.587 20.289 41.503 18.486 41.503 15.867 37.264 15.848 37.264 15.174 41.503 13.378 41.503zM27.137 36.908c-.29-.495-.843-.764-1.46-.764-1.101 0-1.978.848-2.147 1.92-.172 1.09.452 1.88 1.573 1.88.587 0 1.218-.287 1.667-.735l-.342 2.156c-.625.184-1.077.32-1.638.32-.964 0-1.825-.365-2.436-1.017-.653-.687-.86-1.59-.695-2.614.148-.944.651-1.85 1.422-2.531.787-.695 1.837-1.12 2.812-1.12.575 0 1.086.13 1.583.35l-.34 2.155zM33.515 37.926c-.19 1.193-1.208 2.065-2.28 2.065-1.074 0-1.818-.872-1.627-2.065.15-.955 1.17-1.826 2.243-1.826s1.818.87 1.664 1.826m-1.388-3.567c-1.991 0-4.06 1.467-4.392 3.556-.354 2.24 1 3.814 3.222 3.814s4.078-1.575 4.434-3.814c.331-2.089-1.273-3.556-3.264-3.556M43.352 38.044c-.216 1.35-1.226 1.937-2.3 1.937h-.402l.613-3.873h.423c1.155 0 1.86.699 1.666 1.936m-1.093-3.457h-2.554l-1.097 6.916h2.55c1.918 0 3.757-1.512 4.064-3.46.309-1.943-1.038-3.456-2.963-3.456M48.165 36.108L47.98 37.264 50.008 37.264 49.767 38.79 47.738 38.79 47.548 39.981 49.689 39.981 49.445 41.503 45.509 41.503 46.606 34.586 50.543 34.586 50.301 36.108zM52.593 39.981L54.752 39.981 54.51 41.503 50.553 41.503 51.653 34.587 53.451 34.587zM60.716 38.925l1.092-2.203h.016l.388 2.203h-1.496zm2.433-4.338h-1.964l-3.76 6.916h1.908l.668-1.202h2.478l.257 1.202h1.918l-1.505-6.916zM72.176 34.587l-.617 3.89c-.144.887-.32 1.768-1.116 2.436-.667.568-1.608.772-2.414.772-.809 0-1.683-.204-2.175-.772-.58-.668-.477-1.55-.339-2.437l.621-3.89h1.799l-.578 3.643c-.143.898-.235 1.877.92 1.877 1.158 0 1.38-.979 1.521-1.877l.576-3.642h1.802zM76.826 36.366c-.286-.272-.677-.458-1.116-.458-.334 0-.804.192-.864.577-.066.404.395.557.692.66l.437.14c.919.281 1.584.769 1.407 1.886-.11.69-.384 1.395-1.01 1.863-.615.457-1.37.65-2.067.65-.872 0-1.68-.291-2.307-.789l1-1.446c.386.393.866.714 1.483.714.424 0 .906-.212.984-.697.079-.503-.601-.677-.968-.788-1.077-.32-1.773-.615-1.562-1.956.223-1.401 1.368-2.32 2.755-2.32.696 0 1.516.22 2.073.57l-.937 1.394zM80.619 41.503L78.82 41.503 79.675 36.108 78.188 36.108 78.431 34.587 83.203 34.587 82.961 36.108 81.476 36.108zM86.72 36.826c-.118.75-.798.86-1.384.86h-.174l.273-1.722h.172c.59 0 1.234.108 1.113.862m1.891-.113c.234-1.475-.7-2.127-2.07-2.127h-2.686l-1.098 6.917h1.8l.421-2.66h.018l1.275 2.66h2.24l-1.727-2.835c1.012-.174 1.674-1.002 1.827-1.955M94.997 37.926c-.189 1.193-1.207 2.065-2.282 2.065s-1.815-.872-1.627-2.065c.151-.955 1.17-1.826 2.242-1.826 1.075 0 1.818.87 1.667 1.826m-1.392-3.567c-1.99 0-4.056 1.467-4.39 3.556-.353 2.24 1.002 3.814 3.221 3.814 2.226 0 4.079-1.575 4.435-3.814.332-2.089-1.27-3.556-3.266-3.556M3.795 39.393c-.12.761-1.014.732-1.547.732h-.231l.237-1.483h.183c.588 0 1.491-.083 1.358.751zm-1.117-3.429h.129c.485 0 1.041.035.94.668-.094.587-.601.67-1.08.67h-.2l.211-1.338zm1.77 1.85l.005-.017c.606-.287.887-.788.985-1.412.212-1.32-.54-1.798-1.77-1.798H1.1L0 41.503h2.772c1.267 0 2.581-.476 2.813-1.924.15-.967-.167-1.637-1.137-1.765z" transform="translate(12 39)"/>
            </g>
        </g>
    </g>
</svg>
